<svg width="1107" height="660" xmlns="http://www.w3.org/2000/svg" xmlns:xlink="http://www.w3.org/1999/xlink" overflow="hidden"><g transform="translate(-98 -43)"><path d="M515 50C515 46.134 518.134 43 522 43L781 43C784.866 43 788 46.134 788 50L788 113C788 116.866 784.866 120 781 120L522 120C518.134 120 515 116.866 515 113Z" fill="#767171" fill-rule="evenodd"/><text fill="#FFFFFF" font-family="Segoe UI,Segoe UI_MSFontService,sans-serif" font-weight="400" font-size="24" transform="translate(539.152 90)">SimpleCalculator.Wpf</text><text fill="#767171" font-family="Segoe UI,Segoe UI_MSFontService,sans-serif" font-weight="400" font-size="21" transform="translate(336.39 90)">Entry point</text><path d="M451.5 79.5001 515.597 79.5002" stroke="#767171" stroke-width="1.33333" stroke-miterlimit="8" stroke-dasharray="1.33333 1.33333" fill="none" fill-rule="evenodd"/><path d="M155.909 624C150.989 624 147 620.011 147 615.091L147 534.909C147 529.989 150.989 526 155.909 526L1119.09 526C1124.01 526 1128 529.989 1128 534.909L1128 615.091C1128 620.011 1124.01 624 1119.09 624Z" stroke="#548235" stroke-width="2" stroke-miterlimit="8" fill="none" fill-rule="evenodd"/><text fill="#548235" font-family="Segoe UI,Segoe UI_MSFontService,sans-serif" font-weight="400" font-size="24" transform="translate(522.262 584)">SimpleCalculator.Core</text><path d="M145 242C145 238.134 148.134 235 152 235L562 235C565.866 235 569 238.134 569 242L569 305C569 308.866 565.866 312 562 312L152 312C148.134 312 145 308.866 145 305Z" fill="#2F5597" fill-rule="evenodd"/><text fill="#FFFFFF" font-family="Segoe UI,Segoe UI_MSFontService,sans-serif" font-weight="400" font-size="24" transform="translate(177.203 282)">SimpleCalculator.Wpf.Presentation</text><path d="M649 242C649 238.134 652.134 235 656 235L1107 235C1110.87 235 1114 238.134 1114 242L1114 305C1114 308.866 1110.87 312 1107 312L656 312C652.134 312 649 308.866 649 305Z" stroke="#BF9000" stroke-width="2" stroke-miterlimit="8" fill="none" fill-rule="evenodd"/><text fill="#BF9000" font-family="Segoe UI,Segoe UI_MSFontService,sans-serif" font-weight="400" font-size="24" transform="translate(677.039 282)">SimpleCalculator.CalculationLogic.Core</text><path d="M649 395C649 391.134 652.134 388 656 388L1107 388C1110.87 388 1114 391.134 1114 395L1114 458C1114 461.866 1110.87 465 1107 465L656 465C652.134 465 649 461.866 649 458Z" fill="#BF9000" fill-rule="evenodd"/><text fill="#FFFFFF" font-family="Segoe UI,Segoe UI_MSFontService,sans-serif" font-weight="400" font-size="24" transform="translate(704.299 435)">SimpleCalculator.CalculationLogic</text><path d="M569.5 272.833 647.894 272.833 647.894 274.167 569.5 274.167ZM640.23 268.258 649.217 273.5 640.23 278.743C639.912 278.928 639.504 278.821 639.318 278.503 639.133 278.185 639.24 277.776 639.558 277.591L647.558 272.924 647.558 274.076 639.558 269.409C639.24 269.224 639.133 268.816 639.318 268.498 639.504 268.18 639.912 268.072 640.23 268.258Z" fill="#1C1C1C"/><path d="M865.5 327.5 882 312.5 898.5 327.5Z" stroke="#1C1C1C" stroke-width="1.33333" stroke-miterlimit="8" fill="#FFFFFF" fill-rule="evenodd"/><path d="M881.5 327.5 881.5 388.471" stroke="#1C1C1C" stroke-width="1.33333" stroke-miterlimit="8" fill="none" fill-rule="evenodd"/><path d="M1114.5 272.833 1164.5 272.833 1164.5 575.944 1129.69 575.944 1129.69 574.611 1163.83 574.611 1163.17 575.278 1163.17 273.5 1163.83 274.167 1114.5 274.167ZM1137.36 580.52 1128.37 575.278 1137.36 570.035C1137.68 569.85 1138.08 569.957 1138.27 570.275 1138.46 570.593 1138.35 571.001 1138.03 571.187L1130.03 575.853 1130.03 574.702 1138.03 579.368C1138.35 579.554 1138.46 579.962 1138.27 580.28 1138.08 580.598 1137.68 580.706 1137.36 580.52Z" fill="#1C1C1C"/><path d="M1114.5 426.833 1164.5 426.833 1164.5 576.495 1129.69 576.495 1129.69 575.161 1163.83 575.161 1163.17 575.828 1163.17 427.5 1163.83 428.167 1114.5 428.167ZM1137.36 581.071 1128.37 575.828 1137.36 570.586C1137.68 570.4 1138.08 570.507 1138.27 570.825 1138.46 571.143 1138.35 571.552 1138.03 571.737L1130.03 576.404 1130.03 575.252 1138.03 579.919C1138.35 580.104 1138.46 580.513 1138.27 580.831 1138.08 581.149 1137.68 581.256 1137.36 581.071Z" fill="#1C1C1C"/><path d="M0-0.666667 24.6667-0.666667 24.6667 0.302572 24-0.364095 184.23-0.364095 184.23 280.032 183.563 279.366 213.1 279.366 213.1 280.699 182.896 280.699 182.896 0.302572 183.563 0.969239 23.3333 0.969239 23.3333 0 24 0.666667 0 0.666667ZM205.436 274.79 214.423 280.032 205.436 285.275C205.118 285.46 204.71 285.353 204.525 285.035 204.339 284.717 204.446 284.309 204.764 284.123L212.764 279.456 212.764 280.608 204.764 275.942C204.446 275.756 204.339 275.348 204.525 275.03 204.71 274.712 205.118 274.604 205.436 274.79Z" fill="#1C1C1C" transform="matrix(1.83697e-16 1 1 -1.83697e-16 357.5 310.5)"/><text fill="#767171" font-family="Segoe UI,Segoe UI_MSFontService,sans-serif" font-weight="400" font-size="21" transform="translate(459.821 669)">Shared library</text><rect x="100" y="199" width="1103" height="501" stroke="#3B3838" stroke-width="4" stroke-miterlimit="8" stroke-dasharray="4 4" fill="none"/><path d="M638.224 624.5 638.224 655.484 638.367 655.484 638.367 661.592 602.5 661.592" stroke="#767171" stroke-width="1.33333" stroke-miterlimit="8" stroke-dasharray="1.33333 1.33333" fill="none" fill-rule="evenodd"/><path d="M652.167 120.5 652.167 198.469 650.833 198.469 650.833 120.5ZM656.743 190.805 651.5 199.792 646.258 190.805C646.072 190.487 646.18 190.079 646.498 189.893 646.816 189.708 647.224 189.815 647.409 190.133L652.076 198.133 650.924 198.133 655.591 190.133C655.776 189.815 656.185 189.707 656.503 189.893 656.821 190.079 656.928 190.487 656.743 190.805Z" fill="#1C1C1C"/></g></svg>