<svg width="1296" height="681" xmlns="http://www.w3.org/2000/svg" xmlns:xlink="http://www.w3.org/1999/xlink" overflow="hidden"><g transform="translate(-15 -11)"><path d="M19 73.0002C19 69.1341 22.1341 66 26.0002 66L284 66C287.866 66 291 69.1341 291 73.0002L291 136C291 139.866 287.866 143 284 143L26.0002 143C22.1341 143 19 139.866 19 136Z" fill="#767171" fill-rule="evenodd"/><text fill="#FFFFFF" font-family="Segoe UI,Segoe UI_MSFontService,sans-serif" font-weight="400" font-size="24" transform="translate(42.6757 113)">SimpleCalculator.Wpf</text><text fill="#767171" font-family="Segoe UI,Segoe UI_MSFontService,sans-serif" font-weight="400" font-size="21" transform="translate(28.2667 39)">Entry point</text><path d="M143.5 31.5001 155.531 31.5001 155.531 66.7421" stroke="#767171" stroke-width="1.33333" stroke-miterlimit="8" stroke-dasharray="1.33333 1.33333" fill="none" fill-rule="evenodd"/><path d="M260.909 613C255.989 613 252 609.011 252 604.091L252 523.909C252 518.989 255.989 515 260.909 515L1224.09 515C1229.01 515 1233 518.989 1233 523.909L1233 604.091C1233 609.011 1229.01 613 1224.09 613Z" fill="#548235" fill-rule="evenodd"/><text fill="#FFFFFF" font-family="Segoe UI,Segoe UI_MSFontService,sans-serif" font-weight="400" font-size="24" transform="translate(627.69 573)">SimpleCalculator.</text><text fill="#FFFFFF" font-family="Segoe UI,Segoe UI_MSFontService,sans-serif" font-weight="400" font-size="24" transform="translate(808.51 573)">Cor</text><text fill="#FFFFFF" font-family="Segoe UI,Segoe UI_MSFontService,sans-serif" font-weight="400" font-size="24" transform="translate(845.364 573)">e</text><path d="M251 231C251 227.134 254.134 224 258 224L668 224C671.866 224 675 227.134 675 231L675 294C675 297.866 671.866 301 668 301L258 301C254.134 301 251 297.866 251 294Z" fill="#2F5597" fill-rule="evenodd"/><text fill="#FFFFFF" font-family="Segoe UI,Segoe UI_MSFontService,sans-serif" font-weight="400" font-size="24" transform="translate(282.632 271)">SimpleCalculator.Wpf</text><text fill="#FFFFFF" font-family="Segoe UI,Segoe UI_MSFontService,sans-serif" font-weight="400" font-size="24" transform="translate(505.672 271)">.Presentatio</text><text fill="#FFFFFF" font-family="Segoe UI,Segoe UI_MSFontService,sans-serif" font-weight="400" font-size="24" transform="translate(629.358 271)">n</text><path d="M754 231C754 227.134 757.134 224 761 224L1212 224C1215.87 224 1219 227.134 1219 231L1219 294C1219 297.866 1215.87 301 1212 301L761 301C757.134 301 754 297.866 754 294Z" fill="#BF9000" fill-rule="evenodd"/><text fill="#FFFFFF" font-family="Segoe UI,Segoe UI_MSFontService,sans-serif" font-weight="400" font-size="24" transform="translate(782.467 271)">SimpleCalculator.CalculationLogic.Core</text><path d="M754 384C754 380.134 757.134 377 761 377L1212 377C1215.87 377 1219 380.134 1219 384L1219 447C1219 450.866 1215.87 454 1212 454L761 454C757.134 454 754 450.866 754 447Z" stroke="#BF9000" stroke-width="2" stroke-miterlimit="8" fill="#FFFFFF" fill-rule="evenodd"/><text fill="#BF9000" font-family="Segoe UI,Segoe UI_MSFontService,sans-serif" font-weight="400" font-size="24" transform="translate(809.727 424)">SimpleCalculator.CalculationLogic</text><path d="M675.5 261.833 753.894 261.833 753.894 263.167 675.5 263.167ZM746.23 257.258 755.217 262.5 746.23 267.743C745.912 267.928 745.504 267.821 745.318 267.503 745.133 267.185 745.24 266.776 745.558 266.591L753.558 261.924 753.558 263.076 745.558 258.409C745.24 258.224 745.133 257.816 745.318 257.498 745.504 257.18 745.912 257.072 746.23 257.258Z" fill="#1C1C1C"/><path d="M970.5 316.5 987 301.5 1003.5 316.5Z" stroke="#1C1C1C" stroke-width="1.33333" stroke-miterlimit="8" fill="#FFFFFF" fill-rule="evenodd"/><path d="M987.5 316.5 987.5 377.471" stroke="#1C1C1C" stroke-width="1.33333" stroke-miterlimit="8" fill="none" fill-rule="evenodd"/><path d="M1219.5 261.833 1269.5 261.833 1269.5 564.944 1234.69 564.944 1234.69 563.611 1268.83 563.611 1268.17 564.278 1268.17 262.5 1268.83 263.167 1219.5 263.167ZM1242.36 569.52 1233.37 564.278 1242.36 559.035C1242.68 558.85 1243.08 558.957 1243.27 559.275 1243.46 559.593 1243.35 560.001 1243.03 560.187L1235.03 564.853 1235.03 563.702 1243.03 568.368C1243.35 568.554 1243.46 568.962 1243.27 569.28 1243.08 569.598 1242.68 569.706 1242.36 569.52Z" fill="#1C1C1C"/><path d="M1219.5 415.833 1269.5 415.833 1269.5 565.495 1234.69 565.495 1234.69 564.161 1268.83 564.161 1268.17 564.828 1268.17 416.5 1268.83 417.167 1219.5 417.167ZM1242.36 570.071 1233.37 564.828 1242.36 559.586C1242.68 559.4 1243.08 559.507 1243.27 559.825 1243.46 560.143 1243.35 560.552 1243.03 560.737L1235.03 565.404 1235.03 564.252 1243.03 568.919C1243.35 569.104 1243.46 569.513 1243.27 569.831 1243.08 570.149 1242.68 570.256 1242.36 570.071Z" fill="#1C1C1C"/><path d="M251.5 263.167 211.5 263.167 212.167 262.5 212.167 564.278 211.5 563.611 251.513 563.611 251.513 564.944 210.833 564.944 210.833 261.833 251.5 261.833ZM243.849 559.035 252.836 564.278 243.849 569.52C243.531 569.706 243.123 569.598 242.938 569.28 242.752 568.962 242.859 568.554 243.177 568.368L251.177 563.702 251.177 564.853 243.177 560.187C242.859 560.001 242.752 559.593 242.938 559.275 243.123 558.957 243.531 558.85 243.849 559.035Z" fill="#1C1C1C"/><text fill="#767171" font-family="Segoe UI,Segoe UI_MSFontService,sans-serif" font-weight="400" font-size="21" transform="translate(817.249 658)">Shared</text><text fill="#767171" font-family="Segoe UI,Segoe UI_MSFontService,sans-serif" font-weight="400" font-size="21" transform="translate(888.136 658)">librar</text><text fill="#767171" font-family="Segoe UI,Segoe UI_MSFontService,sans-serif" font-weight="400" font-size="21" transform="translate(937.656 658)">y</text><path d="M0 0 37.3336 0 37.3336 56.9363 37.0921 56.9363 37.0921 64.8721" stroke="#767171" stroke-width="0.666667" stroke-miterlimit="8" stroke-dasharray="0.666667 0.666667" fill="none" fill-rule="evenodd" transform="matrix(1.83697e-16 1 1 -1.83697e-16 743.5 613.5)"/><rect x="155" y="188" width="1153" height="501" stroke="#3B3838" stroke-width="4" stroke-miterlimit="8" stroke-dasharray="4 4" fill="none"/><path d="M291.5 103.833 732.405 103.833 732.405 186.762 731.072 186.762 731.072 104.5 731.738 105.167 291.5 105.167ZM736.981 179.097 731.738 188.084 726.496 179.097C726.31 178.779 726.418 178.371 726.736 178.185 727.054 178 727.462 178.107 727.647 178.425L732.314 186.425 731.162 186.425 735.829 178.425C736.015 178.107 736.423 178 736.741 178.185 737.059 178.371 737.166 178.779 736.981 179.097Z" fill="#1C1C1C"/></g></svg>